<svg width="109" height="105" viewBox="0 0 109 105" fill="none" xmlns="http://www.w3.org/2000/svg">
<path d="M40.8355 22.2771C43.614 14.1463 54.8486 13.9 58.1427 21.5384L58.4215 22.2818L62.171 33.2469C63.0302 35.7616 64.4189 38.0627 66.2431 39.9952C68.0673 41.9276 70.2847 43.4463 72.7458 44.4489L73.754 44.8253L84.7191 48.5701C92.85 51.3486 93.0962 62.5832 85.4625 65.8773L84.7191 66.1561L73.754 69.9056C71.2384 70.7643 68.9364 72.1527 67.0031 73.9769C65.0699 75.8012 63.5505 78.0189 62.5473 80.4804L62.171 81.484L58.4261 92.4538C55.6477 100.585 44.4131 100.831 41.1236 93.1971L40.8355 92.4538L37.0907 81.4887C36.2319 78.9731 34.8436 76.671 33.0193 74.7378C31.1951 72.8045 28.9774 71.2851 26.5158 70.282L25.5122 69.9056L14.5471 66.1608C6.41161 63.3823 6.16534 52.1477 13.8037 48.8582L14.5471 48.5701L25.5122 44.8253C28.0269 43.966 30.3281 42.5774 32.2605 40.7532C34.193 38.929 35.7117 36.7115 36.7143 34.2505L37.0907 33.2469L40.8355 22.2771ZM86.8007 6.25696C87.6699 6.25696 88.5216 6.50078 89.2592 6.96073C89.9967 7.42067 90.5905 8.07829 90.9729 8.85885L91.196 9.40245L92.8221 14.1695L97.5938 15.7957C98.4649 16.0916 99.2285 16.6395 99.7879 17.3699C100.347 18.1003 100.677 18.9803 100.736 19.8984C100.795 20.8165 100.579 21.7314 100.118 22.5271C99.6559 23.3228 98.9684 23.9634 98.1421 24.3679L97.5938 24.591L92.8268 26.2171L91.2006 30.9888C90.9041 31.8597 90.3558 32.6229 89.6251 33.1818C88.8945 33.7407 88.0144 34.0702 87.0963 34.1284C86.1782 34.1866 85.2635 33.971 84.4681 33.5088C83.6727 33.0467 83.0324 32.3588 82.6283 31.5324L82.4053 30.9888L80.7791 26.2218L76.0074 24.5956C75.1363 24.2997 74.3727 23.7518 73.8133 23.0214C73.2539 22.291 72.924 21.411 72.8653 20.4929C72.8066 19.5748 73.0217 18.6599 73.4835 17.8642C73.9453 17.0685 74.6329 16.4278 75.4592 16.0233L76.0074 15.8003L80.7744 14.1741L82.4007 9.40245C82.7139 8.48448 83.3067 7.68757 84.0958 7.12347C84.8848 6.55938 85.8307 6.25638 86.8007 6.25696Z" fill="#005FF7"/>
</svg>
