<svg width="338" height="78" viewBox="0 0 338 78" fill="none" xmlns="http://www.w3.org/2000/svg">
<path d="M28.4702 31.4171C28.3251 29.8208 27.6793 28.5801 26.5329 27.6949C25.401 26.7952 23.783 26.3453 21.6788 26.3453C20.2857 26.3453 19.1248 26.5267 18.1961 26.8895C17.2673 27.2523 16.5708 27.7529 16.1064 28.3914C15.6421 29.0154 15.4026 29.7338 15.3881 30.5464C15.3591 31.2139 15.4897 31.8016 15.7799 32.3095C16.0847 32.8174 16.52 33.2673 17.086 33.6591C17.6664 34.0364 18.363 34.3702 19.1756 34.6604C19.9882 34.9506 20.9025 35.2046 21.9183 35.4222L25.7493 36.2929C27.955 36.7718 29.8996 37.4103 31.5829 38.2084C33.2807 39.0066 34.7029 39.9571 35.8493 41.0599C37.0102 42.1628 37.8881 43.4326 38.4831 44.8692C39.0781 46.3058 39.3828 47.9166 39.3973 49.7015C39.3828 52.5167 38.6717 54.9329 37.2641 56.95C35.8565 58.9671 33.8322 60.5126 31.1911 61.5864C28.5645 62.6602 25.3938 63.1972 21.6788 63.1972C17.9494 63.1972 14.6988 62.6385 11.9271 61.5211C9.15544 60.4037 7.00049 58.7059 5.46227 56.4276C3.92406 54.1493 3.13318 51.2688 3.08965 47.786H13.4073C13.4944 49.2226 13.8789 50.4198 14.561 51.3776C15.243 52.3353 16.179 53.0609 17.3689 53.5543C18.5734 54.0477 19.9665 54.2944 21.5482 54.2944C22.9994 54.2944 24.2328 54.0985 25.2486 53.7067C26.279 53.3149 27.0698 52.7707 27.6213 52.0741C28.1727 51.3776 28.4557 50.5795 28.4702 49.6797C28.4557 48.8381 28.1945 48.1198 27.6866 47.5248C27.1787 46.9153 26.3951 46.3929 25.3357 45.9576C24.2909 45.5077 22.9558 45.0941 21.3306 44.7168L16.6724 43.6285C12.8123 42.7433 9.77218 41.3139 7.55192 39.3403C5.33167 37.3523 4.2288 34.6676 4.24331 31.2865C4.2288 28.5293 4.96888 26.1131 6.46356 24.038C7.95824 21.9629 10.0261 20.3448 12.6672 19.1839C15.3083 18.023 18.3194 17.4425 21.7006 17.4425C25.1543 17.4425 28.1509 18.0303 30.6904 19.2057C33.2445 20.3666 35.2253 21.9991 36.6329 24.1033C38.0405 26.2075 38.7588 28.6454 38.7878 31.4171H28.4702ZM55.4833 43.5632V62.6312H44.8391V29.1968H54.9609V35.3352H55.3309C56.071 33.2891 57.3335 31.6855 59.1184 30.5246C60.9033 29.3492 63.0292 28.7615 65.4962 28.7615C67.847 28.7615 69.8859 29.2912 71.6128 30.3505C73.3541 31.3953 74.7037 32.861 75.6614 34.7475C76.6337 36.6194 77.1126 38.8107 77.0981 41.3212V62.6312H66.4539V43.4108C66.4684 41.5533 65.9968 40.1022 65.0391 39.0574C64.0958 38.0125 62.7825 37.4901 61.0992 37.4901C59.9818 37.4901 58.995 37.7368 58.1389 38.2302C57.2972 38.7091 56.6442 39.3984 56.1798 40.2981C55.73 41.1978 55.4978 42.2862 55.4833 43.5632ZM93.1133 63.1972C90.9801 63.1972 89.0864 62.8416 87.432 62.1306C85.7923 61.405 84.4935 60.3166 83.5357 58.8655C82.5925 57.3998 82.1209 55.5641 82.1209 53.3584C82.1209 51.5009 82.4474 49.9337 83.1004 48.6567C83.7534 47.3797 84.6531 46.3421 85.7995 45.544C86.9459 44.7459 88.2665 44.1436 89.7611 43.7373C91.2558 43.3165 92.8521 43.0335 94.5499 42.8884C96.4509 42.7143 97.9819 42.5329 99.1428 42.3442C100.304 42.141 101.145 41.8581 101.668 41.4953C102.205 41.118 102.473 40.5883 102.473 39.9063V39.7974C102.473 38.6801 102.089 37.8166 101.32 37.2072C100.55 36.5977 99.5128 36.2929 98.2068 36.2929C96.7992 36.2929 95.6673 36.5977 94.8111 37.2072C93.9549 37.8166 93.4108 38.6583 93.1786 39.7321L83.3616 39.3839C83.6518 37.3523 84.3992 35.5383 85.6036 33.9421C86.8226 32.3313 88.4914 31.0688 90.6101 30.1546C92.7432 29.2259 95.3045 28.7615 98.2939 28.7615C100.427 28.7615 102.393 29.0154 104.193 29.5233C105.992 30.0167 107.559 30.7423 108.894 31.7001C110.23 32.6433 111.26 33.8042 111.985 35.1828C112.726 36.5614 113.096 38.1359 113.096 39.9063V62.6312H103.083V57.973H102.821C102.226 59.1049 101.465 60.0627 100.536 60.8463C99.6217 61.6299 98.5406 62.2176 97.2926 62.6095C96.0591 63.0013 94.666 63.1972 93.1133 63.1972ZM96.4001 56.2317C97.5465 56.2317 98.5768 55.9995 99.4911 55.5351C100.42 55.0708 101.16 54.4323 101.711 53.6196C102.263 52.7925 102.538 51.8347 102.538 50.7463V47.5683C102.234 47.728 101.864 47.8731 101.428 48.0037C101.008 48.1343 100.543 48.2576 100.035 48.3737C99.5273 48.4898 99.0049 48.5914 98.468 48.6785C97.9311 48.7655 97.4159 48.8453 96.9225 48.9179C95.9213 49.0775 95.0651 49.3242 94.354 49.658C93.6575 49.9917 93.1205 50.4271 92.7432 50.964C92.3805 51.4864 92.1991 52.1104 92.1991 52.836C92.1991 53.9389 92.5909 54.7805 93.3745 55.361C94.1726 55.9414 95.1812 56.2317 96.4001 56.2317ZM119.604 75.1691V29.1968H130.139V34.9216H130.466C130.901 33.9058 131.518 32.9263 132.316 31.983C133.129 31.0398 134.159 30.2707 135.407 29.6757C136.669 29.0662 138.179 28.7615 139.935 28.7615C142.256 28.7615 144.426 29.371 146.443 30.5899C148.474 31.8089 150.114 33.6881 151.362 36.2276C152.61 38.7671 153.234 42.0032 153.234 45.9358C153.234 49.7233 152.632 52.894 151.428 55.4481C150.238 58.0021 148.627 59.9176 146.595 61.1946C144.578 62.4716 142.336 63.1101 139.869 63.1101C138.186 63.1101 136.727 62.8344 135.494 62.283C134.261 61.7315 133.223 61.0059 132.381 60.1062C131.554 59.2065 130.916 58.2415 130.466 57.2112H130.248V75.1691H119.604ZM130.03 45.914C130.03 47.7134 130.27 49.2807 130.749 50.6157C131.242 51.9508 131.946 52.9884 132.86 53.7284C133.789 54.454 134.899 54.8168 136.191 54.8168C137.497 54.8168 138.607 54.454 139.521 53.7284C140.435 52.9884 141.124 51.9508 141.589 50.6157C142.068 49.2807 142.307 47.7134 142.307 45.914C142.307 44.1146 142.068 42.5546 141.589 41.2341C141.124 39.9135 140.435 38.8905 139.521 38.1649C138.621 37.4393 137.511 37.0765 136.191 37.0765C134.885 37.0765 133.774 37.4321 132.86 38.1431C131.946 38.8542 131.242 39.87 130.749 41.1905C130.27 42.5111 130.03 44.0856 130.03 45.914ZM175.29 62.6312H158.812V18.052H175.268C179.81 18.052 183.721 18.9445 187.001 20.7294C190.295 22.4998 192.834 25.0538 194.619 28.3914C196.404 31.7146 197.296 35.6907 197.296 40.3199C197.296 44.9635 196.404 48.9542 194.619 52.2918C192.849 55.6294 190.316 58.1907 187.022 59.9756C183.728 61.746 179.817 62.6312 175.29 62.6312ZM169.587 53.4455H174.876C177.372 53.4455 179.484 53.0246 181.211 52.183C182.952 51.3268 184.265 49.941 185.15 48.0254C186.05 46.0954 186.5 43.5269 186.5 40.3199C186.5 37.1128 186.05 34.5588 185.15 32.6578C184.251 30.7423 182.923 29.3637 181.167 28.522C179.426 27.6659 177.278 27.2378 174.724 27.2378H169.587V53.4455ZM219.216 63.2625C215.719 63.2625 212.7 62.5732 210.161 61.1946C207.636 59.8015 205.691 57.8207 204.327 55.2521C202.978 52.6691 202.303 49.5999 202.303 46.0446C202.303 42.5909 202.985 39.5725 204.349 36.9895C205.713 34.3919 207.636 32.3748 210.117 30.9382C212.599 29.4871 215.523 28.7615 218.89 28.7615C221.269 28.7615 223.446 29.1315 225.42 29.8716C227.393 30.6117 229.098 31.7073 230.535 33.1585C231.972 34.6096 233.089 36.4018 233.887 38.535C234.685 40.6536 235.084 43.0843 235.084 45.827V48.4826H206.025V42.3007H225.18C225.166 41.1688 224.897 40.1602 224.375 39.275C223.852 38.3898 223.134 37.7005 222.22 37.2072C221.32 36.6993 220.283 36.4453 219.107 36.4453C217.917 36.4453 216.851 36.7138 215.907 37.2507C214.964 37.7731 214.217 38.4914 213.665 39.4056C213.114 40.3053 212.824 41.3284 212.795 42.4748V48.7655C212.795 50.1296 213.063 51.3268 213.6 52.3571C214.137 53.3729 214.899 54.1638 215.886 54.7297C216.872 55.2957 218.048 55.5787 219.412 55.5787C220.355 55.5787 221.211 55.4481 221.98 55.1868C222.75 54.9256 223.41 54.5411 223.961 54.0332C224.513 53.5253 224.926 52.9013 225.202 52.1612L234.975 52.4442C234.569 54.6354 233.677 56.5437 232.298 58.169C230.934 59.7797 229.142 61.035 226.922 61.9347C224.701 62.8199 222.133 63.2625 219.216 63.2625ZM256.128 63.2625C252.601 63.2625 249.576 62.5369 247.051 61.0858C244.54 59.6346 242.61 57.6175 241.261 55.0345C239.911 52.4369 239.236 49.4331 239.236 46.0229C239.236 42.5982 239.911 39.5943 241.261 37.0112C242.625 34.4137 244.562 32.3893 247.073 30.9382C249.598 29.4871 252.609 28.7615 256.106 28.7615C259.197 28.7615 261.889 29.3202 264.182 30.4376C266.489 31.5549 268.288 33.1367 269.58 35.1828C270.886 37.2144 271.575 39.6015 271.648 42.3442H261.7C261.497 40.6319 260.917 39.2895 259.959 38.3173C259.016 37.345 257.782 36.8589 256.258 36.8589C255.025 36.8589 253.944 37.2072 253.015 37.9037C252.086 38.5857 251.361 39.6015 250.838 40.9511C250.33 42.2862 250.076 43.9405 250.076 45.914C250.076 47.8876 250.33 49.5564 250.838 50.9205C251.361 52.27 252.086 53.2931 253.015 53.9897C253.944 54.6717 255.025 55.0127 256.258 55.0127C257.245 55.0127 258.116 54.8023 258.87 54.3815C259.64 53.9606 260.271 53.3439 260.764 52.5313C261.258 51.7041 261.57 50.7028 261.7 49.5274H271.648C271.546 52.2846 270.857 54.6935 269.58 56.7541C268.317 58.8147 266.54 60.4182 264.247 61.5646C261.969 62.6965 259.262 63.2625 256.128 63.2625ZM286.694 53.859L286.738 41.1688H288.218L297.621 29.1968H309.68L295.706 46.3494H292.898L286.694 53.859ZM277.095 62.6312V18.052H287.739V62.6312H277.095ZM297.861 62.6312L289.11 48.7438L296.12 41.1905L310.159 62.6312H297.861Z" fill="white"/>
<path d="M318.091 5.19148C318.991 2.55659 322.632 2.47679 323.699 4.95208L323.79 5.19298L325.005 8.74631C325.283 9.56122 325.733 10.3069 326.324 10.9332C326.915 11.5594 327.634 12.0515 328.431 12.3764L328.758 12.4984L332.311 13.7119C334.946 14.6123 335.026 18.253 332.552 19.3205L332.311 19.4108L328.758 20.6259C327.943 20.9042 327.197 21.3541 326.571 21.9452C325.944 22.5364 325.452 23.2551 325.127 24.0527L325.005 24.378L323.791 27.9328C322.891 30.5677 319.25 30.6475 318.184 28.1737L318.091 27.9328L316.877 24.3795C316.599 23.5643 316.149 22.8183 315.558 22.1918C314.967 21.5653 314.248 21.0729 313.45 20.7478L313.125 20.6259L309.572 19.4123C306.935 18.512 306.855 14.8713 309.331 13.8053L309.572 13.7119L313.125 12.4984C313.94 12.2199 314.686 11.7699 315.312 11.1788C315.938 10.5876 316.43 9.86906 316.755 9.07153L316.877 8.74631L318.091 5.19148ZM332.986 2.72052e-07C333.268 -3.55291e-07 333.544 0.0790139 333.783 0.228063C334.022 0.377112 334.214 0.590218 334.338 0.843163L334.41 1.01932L334.937 2.56412L336.484 3.0911C336.766 3.187 337.013 3.36455 337.195 3.60123C337.376 3.83792 337.483 4.1231 337.502 4.42062C337.521 4.71814 337.451 5.01461 337.302 5.27246C337.152 5.53031 336.929 5.73794 336.661 5.86902L336.484 5.94129L334.939 6.46827L334.412 8.01457C334.316 8.29677 334.138 8.5441 333.901 8.72522C333.665 8.90634 333.379 9.0131 333.082 9.03197C332.784 9.05083 332.488 8.98096 332.23 8.8312C331.972 8.68144 331.765 8.45853 331.634 8.19073L331.562 8.01457L331.035 6.46977L329.488 5.9428C329.206 5.84689 328.959 5.66935 328.777 5.43266C328.596 5.19597 328.489 4.9108 328.47 4.61328C328.451 4.31576 328.521 4.01928 328.671 3.76143C328.82 3.50358 329.043 3.29596 329.311 3.16487L329.488 3.0926L331.033 2.56563L331.56 1.01932C331.662 0.721847 331.854 0.463602 332.11 0.280802C332.365 0.0980012 332.672 -0.00018863 332.986 2.72052e-07Z" fill="#005FF7"/>
</svg>
